<mxfile host="Electron" modified="2024-02-16T16:18:22.831Z" agent="Mozilla/5.0 (Windows NT 10.0; Win64; x64) AppleWebKit/537.36 (KHTML, like Gecko) draw.io/23.0.2 Chrome/120.0.6099.109 Electron/28.1.0 Safari/537.36" etag="4ewb6ZUGKy8m3lCuvc5e" version="23.0.2" type="device">
  <diagram name="Page-1" id="W2-x_QsG-iiYwRm8Ojz_">
    <mxGraphModel dx="913" dy="540" grid="1" gridSize="10" guides="1" tooltips="1" connect="1" arrows="1" fold="1" page="1" pageScale="1" pageWidth="850" pageHeight="1100" math="0" shadow="0">
      <root>
        <mxCell id="0" />
        <mxCell id="1" parent="0" />
        <mxCell id="Ocy4P3Z2TOHNAnS6clSy-20" value="" style="endArrow=none;html=1;rounded=0;shape=flexArrow;endFill=0;startArrow=block;endSize=3;startSize=3.291685393258427;width=4.224719101123595;startWidth=9.367283950617283;" parent="1" source="hoaF8kJ8CHcvQDEV2gAd-1" target="_V83E3i8GnTMx0pe4Gnn-1" edge="1">
          <mxGeometry width="50" height="50" relative="1" as="geometry">
            <mxPoint x="509.97442999999976" y="190" as="sourcePoint" />
            <mxPoint x="580" y="194.47368421052636" as="targetPoint" />
          </mxGeometry>
        </mxCell>
        <mxCell id="hoaF8kJ8CHcvQDEV2gAd-1" value="DataLibrary&amp;nbsp;&lt;br&gt;&lt;span style=&quot;font-weight: normal;&quot;&gt;&lt;font style=&quot;font-size: 12px;&quot;&gt;(Class Library: Model)&lt;/font&gt;&lt;/span&gt;" style="sketch=0;pointerEvents=1;shadow=0;dashed=0;html=1;strokeColor=none;fillColor=#505050;labelPosition=left;verticalLabelPosition=middle;verticalAlign=middle;outlineConnect=0;align=right;shape=mxgraph.office.concepts.list_library;fontSize=16;fontStyle=1" parent="1" vertex="1">
          <mxGeometry x="260" y="220.00000000000003" width="60" height="50" as="geometry" />
        </mxCell>
        <mxCell id="hoaF8kJ8CHcvQDEV2gAd-3" value="" style="endArrow=none;html=1;rounded=0;shape=flexArrow;endFill=0;startArrow=block;endSize=3;startSize=3.291685393258427;width=4.224719101123595;startWidth=9.367283950617283;entryX=-0.019;entryY=0.704;entryDx=0;entryDy=0;entryPerimeter=0;" parent="1" source="hoaF8kJ8CHcvQDEV2gAd-1" target="_V83E3i8GnTMx0pe4Gnn-3" edge="1">
          <mxGeometry width="50" height="50" relative="1" as="geometry">
            <mxPoint x="367" y="150" as="sourcePoint" />
            <mxPoint x="245.13999999999987" y="192.45000000000005" as="targetPoint" />
          </mxGeometry>
        </mxCell>
        <mxCell id="_V83E3i8GnTMx0pe4Gnn-1" value="&lt;span style=&quot;border-color: var(--border-color);&quot;&gt;&lt;font style=&quot;font-size: 12px;&quot;&gt;&lt;font style=&quot;font-weight: bold; font-size: 16px;&quot;&gt;BookStoresBlazorApp&lt;/font&gt; (Client)&lt;b style=&quot;&quot;&gt;&amp;nbsp;&lt;br&gt;&lt;/b&gt;&lt;font style=&quot;font-size: 12px;&quot;&gt;(Blazor Server:pages,css,js)&lt;/font&gt;&lt;/font&gt;&lt;/span&gt;" style="outlineConnect=0;dashed=0;verticalLabelPosition=bottom;verticalAlign=top;align=center;html=1;shape=mxgraph.aws3.management_console;fillColor=#D2D3D3;gradientColor=none;" parent="1" vertex="1">
          <mxGeometry x="390.01" y="330" width="130" height="130" as="geometry" />
        </mxCell>
        <mxCell id="_V83E3i8GnTMx0pe4Gnn-7" value="&lt;font style=&quot;font-size: 14px;&quot;&gt;Entity Framework&lt;/font&gt;" style="rounded=0;orthogonalLoop=1;jettySize=auto;html=1;entryX=0;entryY=0.7;entryDx=0;entryDy=0;dashed=1;startArrow=classic;startFill=1;" parent="1" source="_V83E3i8GnTMx0pe4Gnn-3" target="_V83E3i8GnTMx0pe4Gnn-6" edge="1">
          <mxGeometry relative="1" as="geometry" />
        </mxCell>
        <mxCell id="_V83E3i8GnTMx0pe4Gnn-3" value="&lt;span style=&quot;border-color: var(--border-color); background-color: rgb(251, 251, 251);&quot;&gt;&lt;font style=&quot;&quot;&gt;&lt;font style=&quot;&quot;&gt;&lt;b style=&quot;font-size: 16px;&quot;&gt;WebApi&amp;nbsp;&lt;/b&gt;&lt;font style=&quot;font-size: 12px;&quot;&gt;(Server)&lt;/font&gt;&lt;/font&gt; &lt;br&gt;(Asp.Net API: controllers and repositories)&lt;/font&gt;&lt;/span&gt;" style="image;points=[];aspect=fixed;html=1;align=center;shadow=0;dashed=0;image=img/lib/allied_telesis/storage/Datacenter_Server_Half_Rack_ToR.svg;labelPosition=center;verticalLabelPosition=top;verticalAlign=bottom;" parent="1" vertex="1">
          <mxGeometry x="393.21" y="59.41" width="123.59" height="160.59" as="geometry" />
        </mxCell>
        <mxCell id="_V83E3i8GnTMx0pe4Gnn-6" value="&lt;b&gt;&lt;font style=&quot;font-size: 14px;&quot;&gt;BookStores&lt;/font&gt;&lt;/b&gt;" style="shape=datastore;whiteSpace=wrap;html=1;fillColor=#e1d5e7;strokeColor=#9673a6;" parent="1" vertex="1">
          <mxGeometry x="650" y="10" width="90" height="92.7" as="geometry" />
        </mxCell>
        <mxCell id="_V83E3i8GnTMx0pe4Gnn-8" value="&lt;font style=&quot;font-size: 14px;&quot;&gt;HTTP&lt;/font&gt;" style="edgeStyle=orthogonalEdgeStyle;rounded=0;orthogonalLoop=1;jettySize=auto;html=1;entryX=0.5;entryY=0;entryDx=0;entryDy=0;entryPerimeter=0;startArrow=classic;startFill=1;" parent="1" source="_V83E3i8GnTMx0pe4Gnn-3" target="_V83E3i8GnTMx0pe4Gnn-1" edge="1">
          <mxGeometry relative="1" as="geometry" />
        </mxCell>
        <mxCell id="XOMxTnoD6Q63ImMbjSip-1" value="TestRazorClassLibrary&amp;nbsp;&lt;br&gt;&lt;span style=&quot;font-weight: normal;&quot;&gt;&lt;font style=&quot;font-size: 12px;&quot;&gt;(Razor Class Library: &lt;br&gt;&lt;span style=&quot;font-size: 12px; font-weight: 400;&quot;&gt;&amp;nbsp; &amp;nbsp;SelectCityComboBox&lt;/span&gt;)&lt;/font&gt;&lt;/span&gt;" style="sketch=0;pointerEvents=1;shadow=0;dashed=0;html=1;strokeColor=none;fillColor=#505050;labelPosition=right;verticalLabelPosition=middle;verticalAlign=middle;outlineConnect=0;align=left;shape=mxgraph.office.concepts.list_library;fontSize=16;fontStyle=1" vertex="1" parent="1">
          <mxGeometry x="560" y="220.00000000000003" width="60" height="50" as="geometry" />
        </mxCell>
        <mxCell id="XOMxTnoD6Q63ImMbjSip-2" value="" style="endArrow=none;html=1;rounded=0;shape=flexArrow;endFill=0;startArrow=block;endSize=3;startSize=3.291685393258427;width=4.224719101123595;startWidth=9.367283950617283;entryX=0.965;entryY=0.035;entryDx=0;entryDy=0;entryPerimeter=0;" edge="1" parent="1" source="XOMxTnoD6Q63ImMbjSip-1" target="_V83E3i8GnTMx0pe4Gnn-1">
          <mxGeometry width="50" height="50" relative="1" as="geometry">
            <mxPoint x="328" y="280" as="sourcePoint" />
            <mxPoint x="400" y="346" as="targetPoint" />
          </mxGeometry>
        </mxCell>
      </root>
    </mxGraphModel>
  </diagram>
</mxfile>
